# xmcd
#
# Track frame offsets:
#	150
#	12360
#	26602
#	38950
#	52972
#	70592
#	82332
#	95272
#	111835
#	124737
#
# Disc length: 1827 seconds
#
# Revision: 0
# Processed by: cddbd v1.5.2PL0 Copyright (c) Steve Scherf et al.
# Submitted via: dBpowerAMP V4.0
#
DISCID=7d07210a
DTITLE=Merle Haggard - Dueling Country
DYEAR=2000
DGENRE=Country
TTITLE0=Okie From Muskogee
TTITLE1=Branded Man
TTITLE2=If We Make It Through December
TTITLE3=Always Wanting You
TTITLE4=I Think I'll Just Stay Home And Drink
TTITLE5=Carolyn
TTITLE6=The Fightin' Side Of Me
TTITLE7=Daddy Frank (The Guitar Man)
TTITLE8=Sing Me Back Home
TTITLE9=Workin' Man Blues
EXTD=
EXTT0=
EXTT1=
EXTT2=
EXTT3=
EXTT4=
EXTT5=
EXTT6=
EXTT7=
EXTT8=
EXTT9=
PLAYORDER=
